# 3ds Max Wavefront OBJ Exporter v0.97b - (c)2007 guruware
# File Created: 31.07.2019 19:28:37

#
# object Button_Base
#

v  -8.6769 0.0000 3.4386
v  -8.6769 0.0000 -3.4386
v  8.6769 0.0000 -3.4386
v  8.6769 0.0000 3.4386
v  -8.6769 13.0881 3.4386
v  8.6769 13.0881 3.4386
v  8.6769 13.0881 -3.4386
v  -8.6769 13.0881 -3.4386
v  -7.6769 1.0000 0.5802
v  7.6769 1.0000 0.5802
v  7.6769 12.0881 0.5802
v  -7.6769 12.0881 0.5802
v  7.6769 1.0000 3.4386
v  -7.6769 1.0000 3.4386
v  7.6769 12.0881 3.4386
v  -7.6769 12.0881 3.4386
# 16 vertices

vn -0.5774 -0.5774 0.5774
vn -0.5774 -0.5774 -0.5774
vn 0.5774 -0.5774 -0.5774
vn 0.5774 -0.5774 0.5774
vn -0.5774 0.5774 0.5774
vn 0.5774 0.5774 0.5774
vn 0.5774 0.5774 -0.5774
vn -0.5774 0.5774 -0.5774
vn -0.3015 0.3015 0.9045
vn 0.3015 0.3015 0.9045
vn -0.3015 -0.3015 0.9045
vn 0.3015 -0.3015 0.9045
# 12 vertex normals

vt 0.0005 0.7735 0.0000
vt 0.0005 0.5763 0.0000
vt 0.4981 0.5763 0.0000
vt 0.4981 0.7735 0.0000
vt 0.0005 0.3778 0.0000
vt 0.4981 0.3778 0.0000
vt 0.4981 0.5750 0.0000
vt 0.0005 0.5750 0.0000
vt 0.5118 0.3778 0.0000
vt 0.9521 0.3778 0.0000
vt 0.9521 0.6957 0.0000
vt 0.5118 0.6957 0.0000
vt 0.8871 0.7004 0.0000
vt 0.8871 0.8976 0.0000
vt 0.5118 0.8976 0.0000
vt 0.5118 0.7004 0.0000
vt 0.5019 0.0005 0.0000
vt 0.9995 0.0005 0.0000
vt 0.9995 0.3758 0.0000
vt 0.5019 0.3758 0.0000
vt 0.4207 0.0343 0.0000
vt 0.4207 0.2315 0.0000
vt 0.0453 0.2315 0.0000
vt 0.0453 0.0343 0.0000
vt 0.0005 0.0005 0.0000
vt 0.4981 0.0005 0.0000
vt 0.4695 0.0292 0.0000
vt 0.0292 0.0292 0.0000
vt 0.4981 0.3758 0.0000
vt 0.4695 0.3471 0.0000
vt 0.0005 0.3758 0.0000
vt 0.0292 0.3471 0.0000
vt 0.0005 0.8593 0.0000
vt 0.4408 0.8593 0.0000
vt 0.4408 0.9412 0.0000
vt 0.0005 0.9412 0.0000
vt 0.8843 0.9809 0.0000
vt 0.5664 0.9809 0.0000
vt 0.5664 0.8990 0.0000
vt 0.8843 0.8990 0.0000
vt 0.4408 0.8568 0.0000
vt 0.0005 0.8568 0.0000
vt 0.0005 0.7749 0.0000
vt 0.4408 0.7749 0.0000
vt 0.0453 0.2320 0.0000
vt 0.3633 0.2320 0.0000
vt 0.3633 0.3140 0.0000
vt 0.0453 0.3140 0.0000
# 48 texture coords

o Button_Base
g Button_Base
s 2
f 1/1/1 2/2/2 3/3/3 4/4/4 
s 4
f 5/5/5 6/6/6 7/7/7 8/8/8 
s 8
f 9/9/6 10/10/5 11/11/1 12/12/4 
s 16
f 4/13/4 3/14/3 7/15/7 6/16/6 
s 32
f 3/17/3 2/18/2 8/19/8 7/20/7 
s 64
f 2/21/2 1/22/1 5/23/5 8/24/8 
s off
f 1/25/1 4/26/4 13/27/9 14/28/10 
f 4/26/4 6/29/6 15/30/11 13/27/9 
f 6/29/6 5/31/5 16/32/12 15/30/11 
f 5/31/5 1/25/1 14/28/10 16/32/12 
f 14/33/10 13/34/9 10/35/5 9/36/6 
f 13/37/9 15/38/11 11/39/1 10/40/5 
f 15/41/11 16/42/12 12/43/4 11/44/1 
f 16/45/12 14/46/10 9/47/6 12/48/4 
# 14 polygons

#
# object Button_Button
#

v  -7.2740 1.2910 5.6253
v  7.2740 1.2910 5.6253
v  7.2740 11.7971 5.6253
v  -7.2740 11.7971 5.6253
v  -7.2740 1.2910 0.8693
v  7.2740 1.2910 0.8693
v  7.2740 11.7971 0.8693
v  -7.2740 11.7971 0.8693
# 8 vertices

vn -0.5774 -0.5774 0.5774
vn 0.5774 -0.5774 0.5774
vn 0.5774 0.5774 0.5774
vn -0.5774 0.5774 0.5774
vn -0.7071 -0.7071 -0.0000
vn 0.7071 -0.7071 -0.0000
vn 0.7071 0.7071 -0.0000
vn -0.7071 0.7071 -0.0000
# 8 vertex normals

vt 0.4979 0.2302 0.0000
vt 0.4979 0.9190 0.0000
vt 0.0005 0.9190 0.0000
vt 0.0005 0.2302 0.0000
vt 0.7599 0.6940 0.0000
vt 0.7599 0.0052 0.0000
vt 0.9851 0.0052 0.0000
vt 0.9851 0.6940 0.0000
vt 0.5021 0.7599 0.0000
vt 0.9995 0.7599 0.0000
vt 0.9995 0.9851 0.0000
vt 0.5021 0.9851 0.0000
vt 0.6940 0.2257 0.0000
vt 0.0052 0.2257 0.0000
vt 0.0052 0.0005 0.0000
vt 0.6940 0.0005 0.0000
vt 0.5021 0.7370 0.0000
vt 0.5021 0.2396 0.0000
vt 0.7273 0.2396 0.0000
vt 0.7273 0.7370 0.0000
# 20 texture coords

o Button_Button
g Button_Button
s 8
f 17/49/13 18/50/14 19/51/15 20/52/16 
s off
f 21/53/17 22/54/18 18/55/14 17/56/13 
f 22/57/18 23/58/19 19/59/15 18/60/14 
f 23/61/19 24/62/20 20/63/16 19/64/15 
f 24/65/20 21/66/17 17/67/13 20/68/16 
# 5 polygons

